name GIL03_slow3.mot
datacolumns 153
datarows 4
range 0.55833328 0.58333325
endheader

                time	           pelvis_tx	           pelvis_ty	           pelvis_tz	         pelvis_tilt	         pelvis_list	     pelvis_rotation	       hip_flexion_r	     hip_adduction_r	      hip_rotation_r	        knee_angle_r	       ankle_angle_r	    subtalar_angle_r	         mtp_angle_r	       hip_flexion_l	     hip_adduction_l	      hip_rotation_l	        knee_angle_l	       ankle_angle_l	    subtalar_angle_l	         mtp_angle_l	    lumbar_extension	      lumbar_bending	     lumbar_rotation	     ground_force_vx	     ground_force_vy	     ground_force_vz	     ground_force_px	     ground_force_py	     ground_force_pz	     ground_force_vx	     ground_force_vy	     ground_force_vz	     ground_force_px	     ground_force_py	     ground_force_pz	     ground_torque_x	     ground_torque_y	     ground_torque_z	     ground_torque_x	     ground_torque_y	     ground_torque_z	    ground_marker_px	    ground_marker_py	    ground_marker_pz	    ground_marker_px	    ground_marker_py	    ground_marker_pz	    ground_marker_px	    ground_marker_py	    ground_marker_pz	    ground_marker_px	    ground_marker_py	    ground_marker_pz	    ground_marker_px	    ground_marker_py	    ground_marker_pz	    ground_marker_px	    ground_marker_py	    ground_marker_pz	    ground_marker_px	    ground_marker_py	    ground_marker_pz	    ground_marker_px	    ground_marker_py	    ground_marker_pz	    ground_marker_px	    ground_marker_py	    ground_marker_pz	    ground_marker_px	    ground_marker_py	    ground_marker_pz	    ground_marker_px	    ground_marker_py	    ground_marker_pz	    ground_marker_px	    ground_marker_py	    ground_marker_pz	    ground_marker_px	    ground_marker_py	    ground_marker_pz	    ground_marker_px	    ground_marker_py	    ground_marker_pz	    ground_marker_px	    ground_marker_py	    ground_marker_pz	    ground_marker_px	    ground_marker_py	    ground_marker_pz	    ground_marker_px	    ground_marker_py	    ground_marker_pz	    ground_marker_px	    ground_marker_py	    ground_marker_pz	    ground_marker_px	    ground_marker_py	    ground_marker_pz	    ground_marker_px	    ground_marker_py	    ground_marker_pz	    ground_marker_px	    ground_marker_py	    ground_marker_pz	    ground_marker_px	    ground_marker_py	    ground_marker_pz	    ground_marker_px	    ground_marker_py	    ground_marker_pz	    ground_marker_px	    ground_marker_py	    ground_marker_pz	    ground_marker_px	    ground_marker_py	    ground_marker_pz	    ground_marker_px	    ground_marker_py	    ground_marker_pz	    ground_marker_px	    ground_marker_py	    ground_marker_pz	    ground_marker_px	    ground_marker_py	    ground_marker_pz	    ground_marker_px	    ground_marker_py	    ground_marker_pz	    ground_marker_px	    ground_marker_py	    ground_marker_pz	    ground_marker_px	    ground_marker_py	    ground_marker_pz	    ground_marker_px	    ground_marker_py	    ground_marker_pz	    ground_marker_px	    ground_marker_py	    ground_marker_pz	    ground_marker_px	    ground_marker_py	    ground_marker_pz	    ground_marker_px	    ground_marker_py	    ground_marker_pz	    ground_marker_px	    ground_marker_py	    ground_marker_pz	    ground_marker_px	    ground_marker_py	    ground_marker_pz	
          0.55833328	          0.94969535	          0.90400010	         -0.17667311	          0.52642632	         -0.14506149	         -0.34746379	         -4.72280073	          4.78347778	         -2.75779963	         -7.48387575	         10.90571499	          0.00000000	          0.00000000	         24.21628571	         -3.67090297	         -0.07571793	        -32.44497681	          6.07850218	          0.00000000	          0.00000000	        -17.06167412	         -1.77398431	          3.85531783	          4.13512563	        387.21731171	        -12.06441869	          0.87378674	          0.00000000	         -0.13768938	          0.00000000	          0.00000000	          0.00000000	          1.18922119	          0.00000000	         -0.23089014	          0.00000000	          0.90875842	          0.00000000	          0.00000000	          0.00000000	          0.00000000	          0.89398265	          0.84580994	         -0.18107004	          0.89289588	          0.82595134	         -0.11817032	          0.88359731	          0.82438457	         -0.23526306	          0.86587739	          0.45529929	         -0.14804198	          1.04038346	          0.48436850	         -0.25717053	          0.78523499	          0.06555336	         -0.17936349	          0.98649281	          0.08678204	         -0.27337486	          0.94969535	          0.90400010	         -0.17667311	          0.94915068	          0.90436929	         -0.07654817	          0.95024002	          0.90363091	         -0.27679807	          0.79397184	          0.93628812	         -0.15912430	          0.79575002	          0.93451643	         -0.21348293	          0.87188238	          0.45047268	         -0.09358426	          1.05165434	          0.49295637	         -0.30979624	          0.85678589	          0.45490509	         -0.19102733	          1.03197491	          0.46372780	         -0.21154447	          0.77447456	          0.06480969	         -0.14240527	          0.98845243	          0.08808261	         -0.31180292	          0.80443728	          0.07966293	         -0.20744988	          1.00689065	          0.09842931	         -0.24841239	          0.84454149	          1.34613752	         -0.16351807	          0.94435644	          1.27132964	         -0.11772892	          0.93706989	          1.26975083	         -0.22502987	          0.92551428	          1.28167164	         -0.17579968	          0.97452915	          1.11335349	         -0.17550401	          1.01565683	          0.61618781	         -0.12889339	          1.09340513	          0.68316150	         -0.22014338	          0.94523382	          0.66868079	         -0.08159163	          1.01922870	          0.70017684	         -0.28677353	          0.93071502	          0.58446932	         -0.08630896	          1.05302215	          0.61926895	         -0.28376582	          0.79137242	          0.17757325	         -0.06258477	          0.96582574	          0.21304436	         -0.36995462	          0.79748458	          0.18747771	         -0.10322770	          0.97950327	          0.21528469	         -0.32894576	          0.89609301	          0.03904351	         -0.14260165	          1.10690868	          0.05766757	         -0.29222620	
          0.56666660	          0.95451534	          0.90368521	         -0.17634238	          0.61464024	         -0.19403289	         -0.47476572	         -5.27896261	          4.86963844	         -2.77638817	         -7.25387192	         11.03693485	          0.00000000	          0.00000000	         24.11212921	         -3.64690590	          0.10064030	        -30.65746498	          5.74240685	          0.00000000	          0.00000000	        -17.51955986	         -0.68799120	          2.65709615	          5.10156631	        386.72698969	        -12.28789340	          0.87564838	          0.00000000	         -0.13740904	          0.00000000	          0.00000000	          0.00000000	          1.19235388	          0.00000000	         -0.23131744	          0.00000000	          1.01384717	          0.00000000	          0.00000000	          0.00000000	          0.00000000	          0.89894664	          0.84526610	         -0.18096949	          0.89771903	          0.82562333	         -0.11785389	          0.88865823	          0.82389271	         -0.23496297	          0.86774194	          0.45516765	         -0.14789605	          1.04536152	          0.48387843	         -0.25596198	          0.78555489	          0.06573077	         -0.17951803	          1.00375736	          0.08436184	         -0.27270916	          0.95451534	          0.90368521	         -0.17634238	          0.95376933	          0.90418106	         -0.07627818	          0.95526129	          0.90318930	         -0.27640659	          0.79891616	          0.93576187	         -0.15908529	          0.80063105	          0.93386036	         -0.21349528	          0.87357163	          0.45027855	         -0.09342487	          1.05689847	          0.49244225	         -0.30853397	          0.85980082	          0.45481303	         -0.19103758	          1.03657496	          0.46309945	         -0.21047749	          0.77462792	          0.06503971	         -0.14260770	          1.00573409	          0.08576665	         -0.31113270	          0.80478275	          0.07981851	         -0.20756650	          1.02355897	          0.09664942	         -0.24768932	          0.84982419	          1.34571671	         -0.16358928	          0.94641107	          1.26951027	         -0.11802273	          0.94207478	          1.26915705	         -0.22524536	          0.93049389	          1.28104711	         -0.17593865	          0.97582537	          1.11170495	         -0.17652653	          1.01894760	          0.61506402	         -0.12830499	          1.09810519	          0.68251151	         -0.21879511	          0.94855344	          0.66823125	         -0.08121477	          1.02419698	          0.69957107	         -0.28567296	          0.93377697	          0.58412957	         -0.08600506	          1.05794466	          0.61866528	         -0.28256622	          0.79165912	          0.17779341	         -0.06267058	          0.97927952	          0.21007016	         -0.36936745	          0.79789078	          0.18777858	         -0.10325677	          0.99275446	          0.21274033	         -0.32833520	          0.89620489	          0.03904293	         -0.14256014	          1.12492323	          0.05829126	         -0.29099944	
          0.57499993	          0.95933104	          0.90332401	         -0.17602281	          0.71723366	         -0.26252446	         -0.61348128	         -5.84159470	          4.97038603	         -2.77865696	         -7.04225922	         11.17154408	          0.00000000	          0.00000000	         23.97422409	         -3.66357994	          0.26580048	        -28.88603783	          5.41467667	          0.00000000	          0.00000000	        -17.79895782	         -0.76577634	          2.97461772	          6.07092602	        386.20332720	        -12.69199734	          0.87747083	          0.00000000	         -0.13714493	          0.00000000	          0.00000000	          0.00000000	          1.19547839	          0.00000000	         -0.23181241	          0.00000000	          1.11575024	          0.00000000	          0.00000000	          0.00000000	          0.00000000	          0.90384650	          0.84456831	         -0.18089485	          0.90255022	          0.82525635	         -0.11752714	          0.89374316	          0.82331657	         -0.23465230	          0.86967832	          0.45504054	         -0.14771396	          1.05025351	          0.48324290	         -0.25486591	          0.78588796	          0.06591842	         -0.17968960	          1.02076733	          0.08220492	         -0.27196175	          0.95933104	          0.90332401	         -0.17602281	          0.95837057	          0.90398294	         -0.07601633	          0.96029156	          0.90266514	         -0.27602929	          0.80386484	          0.93515927	         -0.15909915	          0.80550599	          0.93309832	         -0.21355048	          0.87533879	          0.45009542	         -0.09322997	          1.06204093	          0.49178943	         -0.30738506	          0.86245573	          0.45479754	         -0.19082460	          1.04115534	          0.46218723	         -0.20961840	          0.77479315	          0.06527848	         -0.14282845	          1.02273262	          0.08369826	         -0.31038257	          0.80527306	          0.08000456	         -0.20764068	          1.03998470	          0.09514429	         -0.24683756	          0.85514665	          1.34524035	         -0.16367494	          0.95192420	          1.26892591	         -0.11796551	          0.94719762	          1.26844394	         -0.22540759	          0.93553716	          1.28032708	         -0.17609552	          0.98097116	          1.11101925	         -0.17649616	          1.02228999	          0.61396343	         -0.12770347	          1.10284185	          0.68169224	         -0.21753044	          0.95199752	          0.66774637	         -0.08075325	          1.02920032	          0.69878662	         -0.28459129	          0.93680298	          0.58374256	         -0.08558314	          1.06289518	          0.61777896	         -0.28146926	          0.79197139	          0.17801894	         -0.06275579	          0.99251318	          0.20725974	         -0.36871001	          0.79830933	          0.18811437	         -0.10332514	          1.00587142	          0.21028818	         -0.32770088	          0.89631921	          0.03903903	         -0.14251707	          1.14259624	          0.05913465	         -0.28978336	
          0.58333325	          0.96415746	          0.90291977	         -0.17571625	          0.83686352	         -0.35134247	         -0.75278020	         -6.41559601	          5.08682013	         -2.77429724	         -6.84835434	         11.31500149	          0.00000000	          0.00000000	         23.80169296	         -3.71706104	          0.42780399	        -27.13549805	          5.08286762	          0.00000000	          0.00000000	        -18.04140091	         -0.80108690	          3.19339347	          7.10493096	        385.72491948	        -13.27556820	          0.87921924	          0.00000000	         -0.13690701	          0.00000000	          0.00000000	          0.00000000	          1.19861316	          0.00000000	         -0.23233330	          0.00000000	          1.20700757	          0.00000000	          0.00000000	          0.00000000	          0.00000000	          0.90872753	          0.84377211	         -0.18083325	          0.90741885	          0.82484949	         -0.11718316	          0.89886010	          0.82265800	         -0.23432228	          0.87169826	          0.45492342	         -0.14749971	          1.05506933	          0.48248127	         -0.25388533	          0.78622663	          0.06611081	         -0.17987883	          1.03749025	          0.08030911	         -0.27113551	          0.96415746	          0.90291977	         -0.17571625	          0.96298760	          0.90377539	         -0.07575741	          0.96532738	          0.90206409	         -0.27567509	          0.80880547	          0.93447453	         -0.15916537	          0.81037533	          0.93223488	         -0.21365163	          0.87719566	          0.44992650	         -0.09300376	          1.06709051	          0.49101871	         -0.30635297	          0.86501831	          0.45472211	         -0.19044016	          1.04581523	          0.46111777	         -0.20871311	          0.77496630	          0.06552055	         -0.14306703	          1.03941667	          0.08187284	         -0.30955547	          0.80567974	          0.08016741	         -0.20776491	          1.05614376	          0.09386522	         -0.24591759	          0.86055702	          1.34460020	         -0.16374733	          0.95752627	          1.26826370	         -0.11796612	          0.95261347	          1.26763773	         -0.22540750	          0.94071919	          1.27954149	         -0.17624588	          0.98647368	          1.11027908	         -0.17633951	          1.02568436	          0.61287612	         -0.12709060	          1.10761464	          0.68071979	         -0.21634978	          0.95563513	          0.66717267	         -0.08029231	          1.03415596	          0.69777745	         -0.28357616	          0.93993855	          0.58326691	         -0.08511119	          1.06780601	          0.61672777	         -0.28042617	          0.79231864	          0.17824838	         -0.06284130	          1.00550461	          0.20461263	         -0.36798152	          0.79881841	          0.18836188	         -0.10340962	          1.01881075	          0.20793392	         -0.32697526	          0.89642984	          0.03903352	         -0.14247471	          1.15990293	          0.06015748	         -0.28857002	
